<svg width="20" height="20" viewBox="0 0 20 20" fill="none" xmlns="http://www.w3.org/2000/svg">
<path fill-rule="evenodd" clip-rule="evenodd" d="M1 4.99618C1 4.44601 1.23703 4 1.52941 4H18.4706C18.763 4 19 4.44601 19 4.99618C19 5.54636 18.763 5.99237 18.4706 5.99237H1.52941C1.23703 5.99237 1 5.54636 1 4.99618Z" fill="#0C0C0C"/>
<path fill-rule="evenodd" clip-rule="evenodd" d="M6.29412 10.5248C6.29412 9.97463 6.53114 9.52862 6.82353 9.52862H18.4706C18.763 9.52862 19 9.97463 19 10.5248C19 11.075 18.763 11.521 18.4706 11.521H6.82353C6.53114 11.521 6.29412 11.075 6.29412 10.5248Z" fill="#0C0C0C"/>
<path fill-rule="evenodd" clip-rule="evenodd" d="M11.3504 16.0038C11.3504 15.4536 11.5874 15.0076 11.8798 15.0076H18.4706C18.763 15.0076 19 15.4536 19 16.0038C19 16.554 18.763 17 18.4706 17H11.8798C11.5874 17 11.3504 16.554 11.3504 16.0038Z" fill="#0C0C0C"/>
</svg>
