<svg width="24" height="24" viewBox="0 0 24 24" fill="none" xmlns="http://www.w3.org/2000/svg">
<path d="M6.5 6.216V3.906C6.50013 3.53306 6.64838 3.17544 6.91213 2.91178C7.17589 2.64812 7.53356 2.5 7.9065 2.5H20.0935C20.4665 2.5 20.8243 2.64818 21.088 2.91195C21.3518 3.17572 21.5 3.53347 21.5 3.9065V16.094C21.4999 16.4669 21.3516 16.8246 21.0879 17.0882C20.8241 17.3519 20.4664 17.5 20.0935 17.5H17.7585" stroke="#0C0C0C" stroke-width="2" stroke-linecap="round" stroke-linejoin="round"/>
<path d="M16.094 6.5H3.9055C3.53265 6.50027 3.17515 6.64857 2.9116 6.91231C2.64805 7.17605 2.5 7.53365 2.5 7.9065V20.0935C2.5 20.4665 2.64818 20.8243 2.91195 21.088C3.17572 21.3518 3.53347 21.5 3.9065 21.5H16.094C16.4669 21.4999 16.8246 21.3516 17.0882 21.0879C17.3519 20.8241 17.5 20.4664 17.5 20.0935V7.907C17.5001 7.72225 17.4637 7.5393 17.3931 7.3686C17.3224 7.1979 17.2188 7.04279 17.0882 6.91213C16.9576 6.78147 16.8025 6.67783 16.6319 6.60711C16.4612 6.5364 16.2782 6.5 16.0935 6.5H16.094Z" stroke="#0C0C0C" stroke-width="2" stroke-linejoin="round"/>
</svg>
